<svg xmlns="http://www.w3.org/2000/svg" width="114" height="114" viewBox="0 0 114 114" fill="none" >
<rect width="112.782" height="112.782" fill="white" transform="translate(0.609009 0.609039)"/>
<g transform="translate(0.609009 0.609039)" fill="white" >
<path d="M2861 1548 c-42 -40 -161 -156 -266 -259 -202 -197 -247 -229 -326
-229 -28 0 -136 29 -284 75 -132 42 -298 91 -370 111 -225 60 -268 76 -342
125 -134 88 -268 124 -433 116 -193 -10 -341 -71 -459 -188 -78 -77 -103 -90
-227 -120 -113 -27 -131 -34 -145 -60 -20 -38 10 -49 125 -49 181 0 297 -30
386 -101 66 -52 103 -104 135 -192 75 -201 156 -336 274 -455 139 -140 314
-241 498 -288 84 -21 236 -34 221 -18 -4 3 -60 16 -125 29 -143 29 -205 50
-321 110 -234 120 -401 317 -507 596 -43 112 -88 184 -147 232 -99 81 -218
116 -400 117 -102 0 -126 12 -60 29 20 5 64 16 97 25 99 24 136 45 210 116 82
78 134 111 236 145 217 74 434 49 627 -72 52 -33 115 -62 166 -77 65 -20 357
-103 426 -121 8 -3 94 -30 190 -61 212 -68 261 -73 334 -30 27 16 166 142 309
280 142 138 263 252 268 254 4 2 15 -12 23 -30 l14 -33 1 41 c1 40 -10 54 -41
54 -6 0 -45 -33 -87 -72z"/>

</g>
</svg>
