<?xml version="1.0" standalone="no"?>
<!DOCTYPE svg PUBLIC "-//W3C//DTD SVG 20010904//EN"
 "http://www.w3.org/TR/2001/REC-SVG-20010904/DTD/svg10.dtd">
<svg version="1.0" xmlns="http://www.w3.org/2000/svg"
 width="200" height="200" viewBox="0 0 1280.000000 692.000000"
 preserveAspectRatio="xMidYMid meet">
<metadata>
Created by potrace 1.15, written by Peter Selinger 2001-2017
</metadata>
<g transform="translate(0.000000,692.000000) scale(0.100000,-0.100000)"
fill="white" stroke="none">
<path d="M12460 6888 c-19 -16 -34 -33 -32 -39 1 -5 -2 -8 -8 -6 -11 2 -557
-523 -559 -538 -1 -5 68 58 152 140 102 101 88 85 -43 -48 -107 -108 -198
-197 -202 -197 -5 0 10 16 32 36 22 20 38 39 35 42 -8 8 -175 -160 -169 -170
3 -5 0 -7 -8 -6 -7 2 -12 -3 -11 -9 2 -7 -3 -12 -10 -10 -6 1 -11 -4 -10 -10
2 -7 -1 -12 -6 -10 -4 1 -255 -243 -556 -543 -302 -300 -521 -518 -487 -486
34 33 63 58 64 55 2 -2 -28 -33 -66 -69 -38 -36 -66 -59 -62 -52 15 25 -7 10
-87 -61 -102 -91 -180 -150 -278 -213 -113 -72 -120 -78 -54 -43 64 34 174
112 265 188 30 25 46 35 35 22 -38 -45 -254 -198 -342 -244 -133 -68 -223 -91
-363 -90 -176 1 -201 7 -1050 276 -1244 394 -1904 588 -2213 651 -70 15 -234
62 -365 105 -130 44 -253 82 -272 86 -53 11 -101 38 -215 123 -434 322 -922
517 -1470 588 -157 21 -539 23 -695 5 -361 -42 -679 -125 -995 -261 -107 -46
-153 -68 -315 -157 -41 -23 -43 -23 -20 -3 l25 21 -25 -12 c-135 -66 -495
-366 -476 -397 3 -5 -2 -16 -12 -23 -16 -13 -16 -12 -3 6 8 11 -9 -5 -37 -35
-51 -54 -68 -85 -34 -59 9 7 4 -2 -13 -20 -30 -32 -136 -120 -165 -136 -23
-12 -4 5 73 64 37 30 66 56 63 59 -3 3 -25 -13 -48 -34 -24 -22 -67 -54 -95
-73 -55 -34 -70 -50 -31 -31 23 11 23 11 3 -5 -32 -26 -155 -83 -251 -116 -79
-27 -186 -55 -569 -145 -135 -32 -287 -80 -338 -106 -22 -11 -60 -38 -85 -61
l-47 -41 35 38 c46 49 99 80 201 116 46 15 79 29 73 29 -16 1 -145 -44 -184
-64 -37 -19 -140 -113 -140 -127 0 -5 5 -6 11 -2 8 4 7 0 -1 -15 -6 -12 -10
-47 -9 -77 2 -50 6 -58 37 -84 33 -27 100 -51 139 -49 10 0 -4 6 -32 13 -58
14 -106 38 -125 62 -8 9 3 5 24 -10 21 -14 57 -31 79 -37 65 -17 257 -29 497
-29 566 0 942 -67 1280 -227 117 -55 319 -183 355 -224 11 -13 0 -7 -25 13
-67 53 -205 141 -287 182 -113 56 -100 42 20 -22 148 -79 273 -169 392 -284
55 -54 102 -98 105 -98 2 0 -38 44 -90 98 l-95 97 103 -100 c97 -95 115 -114
92 -100 -19 12 -10 -12 12 -31 22 -19 23 -19 8 1 -15 20 -14 20 8 1 23 -20 30
-32 11 -20 -7 4 -10 1 -7 -7 3 -8 10 -13 16 -12 5 1 16 -5 24 -15 12 -15 11
-16 -4 -3 -26 20 -22 -2 4 -25 12 -10 18 -13 13 -5 -5 10 -4 12 4 7 6 -4 9
-11 6 -16 -8 -13 14 -52 25 -45 5 3 12 0 16 -6 4 -8 3 -9 -4 -5 -15 9 -15 1
-1 -25 5 -11 14 -17 19 -14 5 3 12 0 16 -6 4 -8 3 -9 -4 -5 -17 10 -15 1 13
-55 14 -27 30 -47 35 -44 5 3 7 -1 4 -9 -3 -8 4 -31 16 -53 12 -21 19 -30 16
-20 -3 9 -9 25 -12 35 -3 9 4 1 15 -18 22 -39 26 -54 11 -45 -14 9 -14 9 26
-91 20 -49 42 -93 50 -97 8 -4 14 -13 14 -20 0 -7 -4 -6 -10 3 -16 25 -11 2
16 -76 16 -43 32 -74 40 -74 8 0 14 -8 14 -17 0 -15 -2 -16 -10 -3 -14 21 -12
10 6 -43 9 -26 21 -47 28 -47 7 0 18 -17 24 -37 15 -48 8 -55 -8 -8 -7 20 -14
34 -16 32 -8 -7 28 -87 36 -82 4 2 17 -19 29 -48 13 -32 15 -45 6 -33 -23 30
-18 14 20 -71 19 -43 39 -77 44 -76 6 2 8 -3 5 -11 -7 -18 104 -239 116 -231
5 3 7 0 5 -8 -7 -16 44 -109 55 -102 5 3 12 0 16 -6 4 -8 3 -9 -4 -5 -18 11
-14 -3 14 -51 14 -24 29 -41 34 -38 5 3 12 0 16 -6 4 -8 3 -9 -4 -5 -15 9 -15
1 -1 -25 5 -11 14 -17 19 -14 5 3 12 0 16 -6 4 -8 3 -9 -4 -5 -15 9 -15 1 -1
-25 5 -11 14 -17 19 -14 5 3 12 0 16 -6 5 -8 3 -9 -6 -4 -8 5 -11 3 -8 -6 3
-8 10 -14 16 -14 5 0 14 -4 19 -9 5 -5 2 -6 -6 -1 -9 5 -12 3 -9 -6 3 -8 10
-14 16 -14 5 0 14 -4 19 -9 5 -5 2 -6 -6 -1 -9 5 -12 3 -9 -6 3 -8 10 -14 16
-14 5 0 14 -4 19 -9 5 -5 2 -6 -6 -1 -9 5 -12 3 -9 -6 3 -8 10 -13 16 -12 5 1
16 -5 24 -15 12 -15 11 -16 -4 -3 -29 22 -21 -2 13 -39 17 -19 28 -29 24 -22
-9 17 0 15 16 -5 12 -14 12 -16 0 -9 -9 6 -12 4 -9 -5 3 -8 10 -14 16 -14 5 0
14 -4 19 -9 5 -5 3 -6 -4 -2 -22 12 -14 -10 9 -30 22 -19 23 -19 8 1 -12 17
-12 18 0 7 8 -7 15 -20 15 -30 0 -9 5 -17 12 -17 6 0 15 -4 20 -9 5 -5 3 -6
-5 -2 -21 12 -13 -10 10 -30 22 -19 23 -19 8 1 -15 20 -14 20 8 1 23 -20 30
-32 12 -21 -19 12 -10 -12 12 -31 22 -19 23 -19 8 1 -15 20 -14 20 8 1 23 -20
30 -32 11 -20 -19 12 -6 -9 46 -73 28 -34 54 -62 59 -62 5 -1 -1 10 -14 24
-13 14 -21 25 -19 25 3 0 18 -14 35 -32 16 -17 23 -28 17 -24 -27 15 -10 -8
59 -84 40 -43 76 -76 80 -74 5 3 7 0 6 -8 -2 -7 3 -12 10 -10 6 1 11 -4 10
-10 -2 -7 3 -12 10 -10 8 1 11 -1 8 -6 -5 -8 49 -63 179 -182 112 -103 365
-304 465 -369 l35 -23 -35 32 c-19 17 15 -1 75 -41 110 -71 164 -112 93 -70
-21 13 -38 20 -38 17 0 -2 39 -29 88 -59 99 -61 132 -80 132 -73 0 2 -32 22
-70 45 -39 23 -70 44 -70 48 0 3 10 -1 23 -9 120 -79 423 -236 598 -311 408
-174 789 -276 1264 -339 137 -18 792 -18 930 0 571 74 1051 232 1545 507 36
20 54 26 40 15 l-25 -21 30 15 c17 8 39 22 50 31 19 16 19 16 -5 4 -41 -19
-22 -5 135 99 208 137 474 350 579 461 17 17 34 31 39 31 5 0 -1 -9 -14 -20
-13 -10 -19 -19 -14 -20 13 0 95 82 95 94 0 5 -10 1 -22 -10 -13 -10 -5 1 17
24 21 23 41 42 44 42 2 0 -6 -11 -19 -25 -13 -14 -20 -25 -16 -25 13 0 55 55
51 67 -2 6 4 17 13 25 16 12 16 11 2 -7 -15 -20 -14 -20 8 -1 23 20 31 42 10
30 -9 -5 -9 -2 1 9 16 20 25 23 15 5 -4 -7 2 -4 14 6 26 23 30 44 5 25 -16
-11 -16 -11 -5 1 7 8 18 15 24 15 6 0 13 6 16 14 3 9 0 11 -9 6 -8 -5 -11 -4
-6 1 5 5 14 9 20 9 5 0 12 6 15 14 3 9 0 11 -9 6 -8 -5 -11 -4 -6 1 5 5 14 9
20 9 5 0 12 6 15 14 3 9 0 11 -9 6 -8 -5 -11 -4 -6 1 5 5 14 9 20 9 5 0 12 6
15 14 3 9 0 11 -8 6 -9 -5 -11 -4 -6 4 4 6 11 9 16 6 4 -3 15 6 24 20 21 32
20 41 -1 24 -16 -11 -16 -11 -5 1 7 8 18 15 24 15 6 0 13 6 16 14 3 9 0 11 -9
6 -8 -5 -11 -4 -6 1 5 5 12 9 16 9 4 0 22 17 41 38 18 21 56 52 84 68 54 31
56 40 3 13 -18 -9 -54 -37 -82 -63 l-50 -46 45 48 c25 27 65 59 90 72 59 30
394 114 857 215 377 82 438 98 483 127 24 16 25 16 10 -3 -14 -18 -14 -18 3
-5 33 26 39 48 22 86 -8 20 -19 34 -24 31 -5 -4 -13 -1 -17 5 -5 8 -3 9 6 4 8
-5 11 -3 8 6 -3 8 -10 14 -15 14 -6 0 -15 4 -20 9 -5 5 -2 6 6 1 9 -5 12 -3 9
6 -3 8 -10 14 -15 14 -6 0 -15 4 -20 9 -5 5 -2 6 6 1 9 -5 12 -3 9 6 -3 8 -10
14 -15 14 -6 0 -15 4 -20 9 -5 5 -2 6 6 1 9 -5 12 -3 9 6 -3 8 -10 14 -15 14
-6 0 -15 4 -20 9 -5 5 -2 6 6 1 9 -5 12 -3 9 6 -3 8 -10 14 -15 14 -6 0 -15 4
-20 9 -5 5 -3 6 5 2 6 -4 12 -4 12 1 -1 11 -47 63 -56 63 -4 0 3 -12 17 -28
l24 -27 -27 24 c-15 13 -25 28 -22 33 8 13 -16 39 -29 31 -5 -3 -7 -2 -4 4 16
26 -352 301 -440 329 -10 3 10 -11 45 -31 85 -50 78 -54 -10 -6 -40 22 -113
53 -162 71 -97 33 -112 42 -127 74 -8 16 -6 15 10 -4 26 -32 26 -25 1 25 -11
22 -20 35 -20 30 0 -6 -5 -3 -10 7 -6 10 -7 25 -1 40 6 13 10 16 11 8 0 -13 1
-13 10 0 14 21 12 33 -2 24 -7 -4 -4 2 6 14 23 26 34 29 15 5 -11 -15 -9 -14
9 1 12 11 21 24 20 30 -2 6 0 11 3 11 16 0 40 31 36 47 -3 10 -2 16 3 13 9 -6
40 39 40 57 -1 7 -8 1 -16 -14 -20 -38 -28 -36 -9 2 9 17 20 28 25 25 5 -3 16
8 25 24 18 36 19 44 3 35 -8 -4 -10 -3 -5 2 5 5 14 9 19 9 6 0 13 6 16 14 3 9
0 11 -9 5 -12 -7 -12 -5 0 9 16 20 25 22 16 5 -4 -7 21 16 54 52 58 62 76 90
49 74 -8 -4 -10 -3 -5 2 5 5 14 9 19 9 6 0 13 6 16 14 3 9 0 11 -8 6 -9 -5
-11 -4 -6 4 4 6 12 9 17 5 10 -6 44 64 53 111 4 20 1 15 -10 -13 -9 -24 -18
-41 -20 -39 -2 2 3 24 12 48 13 33 18 88 21 229 4 194 8 234 22 225 5 -2 12 3
15 13 4 9 25 47 47 84 23 37 38 71 35 77 -4 5 -1 13 5 17 8 5 10 2 5 -7 -4 -8
2 -3 14 10 11 13 19 30 16 37 -3 7 0 16 6 20 7 5 8 2 3 -7 -8 -12 -6 -12 8 0
20 16 23 36 5 25 -8 -4 -10 -3 -5 2 5 5 14 9 20 9 5 0 12 6 15 14 3 9 0 11 -9
6 -8 -5 -11 -4 -6 1 5 5 14 9 20 9 5 0 12 6 15 14 3 9 0 11 -9 6 -8 -5 -11 -4
-6 1 5 5 14 9 20 9 5 0 12 6 15 14 3 8 0 11 -7 7 -17 -11 -13 0 6 15 14 12 16
12 9 -1 -4 -8 4 -1 18 15 30 34 34 54 9 34 -16 -13 -17 -12 -5 3 8 10 19 16
24 15 6 -1 13 4 16 12 3 9 0 11 -9 6 -8 -5 -11 -4 -6 1 5 5 14 9 20 9 5 0 12
6 15 14 3 9 0 11 -9 6 -8 -5 -11 -4 -6 1 5 5 14 9 20 9 5 0 12 6 15 14 3 9 0
11 -9 6 -8 -5 -11 -4 -6 1 5 5 14 9 20 9 5 0 12 6 15 14 3 9 0 11 -8 6 -9 -5
-11 -4 -6 4 4 6 11 9 16 6 10 -6 43 43 35 55 -3 5 0 12 6 16 8 5 9 3 4 -7 -8
-12 -6 -12 8 0 20 16 23 36 5 25 -8 -4 -10 -3 -5 2 5 5 14 9 20 9 5 0 12 6 15
14 3 9 0 11 -8 6 -9 -5 -11 -4 -6 4 4 6 11 9 16 6 5 -3 18 8 29 24 26 36 27
48 4 30 -16 -11 -16 -11 -5 1 7 8 18 15 24 15 6 0 13 6 16 14 3 9 0 11 -9 6
-8 -5 -11 -4 -6 1 5 5 14 9 20 9 5 0 12 6 15 14 3 9 0 11 -9 6 -8 -5 -11 -4
-6 1 5 5 14 9 19 9 6 0 13 6 16 14 3 9 0 11 -9 6 -8 -5 -11 -4 -6 1 5 5 14 9
19 9 6 0 13 6 16 14 3 9 0 11 -9 6 -8 -5 -11 -4 -6 1 5 5 14 9 19 9 6 0 13 6
16 14 3 8 0 11 -7 7 -17 -11 -13 0 6 15 15 12 16 12 8 -1 -8 -13 -7 -13 8 -1
18 14 24 36 7 26 -16 -10 -11 1 7 16 14 12 16 12 9 -1 -4 -8 4 -1 18 15 14 17
24 35 22 42 -3 6 3 17 12 25 16 12 16 11 2 -7 -15 -20 -14 -20 8 -1 23 20 31
42 10 30 -7 -4 -4 2 6 14 23 26 34 29 15 5 -11 -15 -10 -14 9 1 23 20 31 42
10 30 -7 -4 -4 2 6 14 23 26 34 29 15 5 -27 -37 18 11 75 79 56 67 67 86 44
72 -7 -4 -4 2 6 14 23 26 34 29 16 5 -7 -10 10 7 38 37 49 53 65 79 40 64 -7
-4 -4 2 6 14 23 26 34 29 15 5 -11 -15 -10 -14 9 1 23 20 31 42 10 30 -7 -4
-4 2 6 14 23 26 34 29 15 5 -11 -15 -10 -14 9 1 23 20 31 42 10 30 -9 -5 -9
-2 1 9 16 20 26 23 15 5 -5 -9 -2 -9 9 1 20 16 23 36 5 25 -9 -5 -9 -2 1 9 16
20 26 23 15 5 -5 -9 -2 -9 9 1 20 16 23 36 5 25 -9 -5 -9 -2 1 9 16 20 26 23
15 5 -5 -9 -2 -9 9 1 18 14 24 36 7 26 -16 -10 -11 1 7 16 14 12 16 12 9 -1
-4 -8 4 -1 18 15 30 34 34 54 9 34 -16 -13 -17 -12 -4 3 7 10 17 15 22 13 11
-7 42 53 34 66 -4 5 -1 8 6 7 6 -2 14 3 17 11 3 9 0 11 -9 6 -8 -5 -11 -4 -6
1 5 5 14 9 20 9 7 0 13 9 15 20 3 17 1 18 -8 5 -10 -13 -11 -13 -7 0 2 8 10
15 18 15 8 0 14 10 13 22 0 12 4 21 9 20 5 -1 12 4 15 12 3 9 0 11 -8 6 -8 -5
-11 -3 -8 6 3 8 11 13 17 12 6 -2 18 13 26 33 17 41 20 67 5 44 -5 -8 -10 -10
-10 -5 0 14 20 43 20 30 0 -5 5 -2 11 9 7 11 8 21 2 25 -6 3 -2 28 8 61 9 30
18 46 19 35 1 -19 2 -19 10 1 11 28 11 591 -1 630 -5 16 -26 46 -47 66 l-37
36 -105 0 c-102 -1 -107 -2 -140 -30z"/>
</g>
</svg>
